<svg width="1200" height="700" viewBox="0 0 1200 700" fill="none" xmlns="http://www.w3.org/2000/svg">
  <rect width="1200" height="700" rx="36" fill="#04111F"/>
  <rect x="30" y="30" width="1140" height="640" rx="28" fill="#061524" stroke="#15314B"/>
  <text x="88" y="116" fill="#E2E8F0" font-family="Arial, sans-serif" font-size="38" font-weight="700">UNI IA Operational Flow</text>
  <text x="88" y="154" fill="#94A3B8" font-family="Arial, sans-serif" font-size="20">Data ingestion, strategy validation, risk gate and controlled dispatch.</text>
  <rect x="88" y="224" width="220" height="240" rx="28" fill="#071A2D" stroke="#15314B"/>
  <rect x="344" y="224" width="220" height="240" rx="28" fill="#071A2D" stroke="#15314B"/>
  <rect x="600" y="224" width="220" height="240" rx="28" fill="#071A2D" stroke="#15314B"/>
  <rect x="856" y="224" width="256" height="240" rx="28" fill="#071A2D" stroke="#15314B"/>
  <circle cx="198" cy="284" r="30" fill="#22D3EE" fill-opacity="0.2" stroke="#22D3EE" stroke-width="3"/>
  <circle cx="454" cy="284" r="30" fill="#10B981" fill-opacity="0.2" stroke="#10B981" stroke-width="3"/>
  <circle cx="710" cy="284" r="30" fill="#F59E0B" fill-opacity="0.2" stroke="#F59E0B" stroke-width="3"/>
  <circle cx="984" cy="284" r="30" fill="#A78BFA" fill-opacity="0.2" stroke="#A78BFA" stroke-width="3"/>
  <text x="132" y="352" fill="#E2E8F0" font-family="Arial, sans-serif" font-size="28" font-weight="700">Market Data</text>
  <text x="389" y="352" fill="#E2E8F0" font-family="Arial, sans-serif" font-size="28" font-weight="700">AI Engine</text>
  <text x="650" y="352" fill="#E2E8F0" font-family="Arial, sans-serif" font-size="28" font-weight="700">Risk Desk</text>
  <text x="905" y="352" fill="#E2E8F0" font-family="Arial, sans-serif" font-size="28" font-weight="700">Execution</text>
  <rect x="132" y="380" width="132" height="16" rx="8" fill="#14314C"/>
  <rect x="132" y="410" width="150" height="16" rx="8" fill="#14314C"/>
  <rect x="388" y="380" width="132" height="16" rx="8" fill="#14314C"/>
  <rect x="388" y="410" width="150" height="16" rx="8" fill="#14314C"/>
  <rect x="644" y="380" width="132" height="16" rx="8" fill="#14314C"/>
  <rect x="644" y="410" width="150" height="16" rx="8" fill="#14314C"/>
  <rect x="900" y="380" width="168" height="16" rx="8" fill="#14314C"/>
  <rect x="900" y="410" width="184" height="16" rx="8" fill="#14314C"/>
  <path d="M308 344H344" stroke="#22D3EE" stroke-width="8" stroke-linecap="round"/>
  <path d="M564 344H600" stroke="#10B981" stroke-width="8" stroke-linecap="round"/>
  <path d="M820 344H856" stroke="#F59E0B" stroke-width="8" stroke-linecap="round"/>
  <path d="M328 344L344 332V356L328 344Z" fill="#22D3EE"/>
  <path d="M584 344L600 332V356L584 344Z" fill="#10B981"/>
  <path d="M840 344L856 332V356L840 344Z" fill="#F59E0B"/>
  <rect x="88" y="520" width="1024" height="94" rx="24" fill="#071A2D" stroke="#15314B"/>
  <text x="126" y="578" fill="#67E8F9" font-family="Arial, sans-serif" font-size="30" font-weight="700">Controlled distribution with auditable checkpoints</text>
</svg>