<svg width="1200" height="900" viewBox="0 0 1200 900" fill="none" xmlns="http://www.w3.org/2000/svg">
  <rect width="1200" height="900" rx="40" fill="#04111F"/>
  <rect x="24" y="24" width="1152" height="852" rx="28" fill="url(#bg)" stroke="rgba(148,163,184,0.18)"/>
  <circle cx="980" cy="150" r="130" fill="#0EA5E9" fill-opacity="0.12"/>
  <circle cx="260" cy="720" r="180" fill="#10B981" fill-opacity="0.12"/>
  <rect x="84" y="86" width="1032" height="86" rx="20" fill="#071A2D" stroke="#13314E"/>
  <circle cx="130" cy="129" r="10" fill="#22D3EE"/>
  <circle cx="164" cy="129" r="10" fill="#10B981"/>
  <circle cx="198" cy="129" r="10" fill="#F59E0B"/>
  <rect x="252" y="112" width="210" height="34" rx="10" fill="#0F2740"/>
  <rect x="868" y="110" width="190" height="38" rx="12" fill="#082F49"/>
  <rect x="84" y="206" width="710" height="456" rx="28" fill="#061524" stroke="#15314B"/>
  <path d="M126 566C198 534 245 585 310 502C377 416 454 445 523 350C584 266 649 287 752 250" stroke="#22D3EE" stroke-width="8" stroke-linecap="round"/>
  <path d="M126 598C193 612 257 566 320 574C387 582 454 621 526 546C584 485 664 494 752 438" stroke="#10B981" stroke-width="6" stroke-linecap="round" stroke-dasharray="10 16"/>
  <g opacity="0.45" stroke="#16344F">
    <path d="M126 262H752"/>
    <path d="M126 340H752"/>
    <path d="M126 418H752"/>
    <path d="M126 496H752"/>
    <path d="M126 574H752"/>
    <path d="M126 650H752"/>
    <path d="M186 250V650"/>
    <path d="M306 250V650"/>
    <path d="M426 250V650"/>
    <path d="M546 250V650"/>
    <path d="M666 250V650"/>
  </g>
  <rect x="826" y="206" width="290" height="210" rx="24" fill="#071A2D" stroke="#15314B"/>
  <text x="854" y="252" fill="#E2E8F0" font-family="Arial, sans-serif" font-size="26" font-weight="700">Signal Stack</text>
  <rect x="854" y="282" width="152" height="22" rx="11" fill="#0EA5E9" fill-opacity="0.22"/>
  <rect x="854" y="324" width="220" height="18" rx="9" fill="#14314C"/>
  <rect x="854" y="358" width="190" height="18" rx="9" fill="#14314C"/>
  <rect x="854" y="392" width="160" height="18" rx="9" fill="#14314C"/>
  <rect x="826" y="440" width="290" height="222" rx="24" fill="#071A2D" stroke="#15314B"/>
  <text x="854" y="486" fill="#E2E8F0" font-family="Arial, sans-serif" font-size="26" font-weight="700">Risk Gate</text>
  <rect x="854" y="518" width="160" height="56" rx="18" fill="#082F49"/>
  <text x="885" y="553" fill="#67E8F9" font-family="Arial, sans-serif" font-size="22" font-weight="700">APPROVED</text>
  <rect x="854" y="596" width="228" height="18" rx="9" fill="#14314C"/>
  <rect x="854" y="628" width="204" height="18" rx="9" fill="#14314C"/>
  <rect x="84" y="702" width="1032" height="112" rx="28" fill="#071A2D" stroke="#15314B"/>
  <rect x="116" y="734" width="182" height="48" rx="18" fill="#082F49"/>
  <text x="145" y="764" fill="#67E8F9" font-family="Arial, sans-serif" font-size="24" font-weight="700">Macro Pulse</text>
  <rect x="326" y="748" width="246" height="18" rx="9" fill="#14314C"/>
  <rect x="602" y="748" width="180" height="18" rx="9" fill="#14314C"/>
  <rect x="812" y="748" width="160" height="18" rx="9" fill="#14314C"/>
  <defs>
    <linearGradient id="bg" x1="600" y1="24" x2="600" y2="876" gradientUnits="userSpaceOnUse">
      <stop stop-color="#07111E"/>
      <stop offset="1" stop-color="#030712"/>
    </linearGradient>
  </defs>
</svg>